<svg xmlns="http://www.w3.org/2000/svg" viewBox="0 0 512 512">
  <rect width="512" height="512" rx="120" fill="#0c1220"/>
  <path d="M134 124c0-8.837 7.163-16 16-16h46c8.837 0 16 7.163 16 16v264c0 8.837-7.163 16-16 16h-46c-8.837 0-16-7.163-16-16V124Z" fill="#ffffff"/>
  <circle cx="256" cy="256" r="42" fill="#ffffff"/>
  <path d="M300 124c0-8.837 7.163-16 16-16h46c8.837 0 16 7.163 16 16v193h54c8.837 0 16 7.163 16 16v55c0 8.837-7.163 16-16 16H316c-8.837 0-16-7.163-16-16V124Z" fill="#ffffff"/>
</svg>
