<svg xmlns="http://www.w3.org/2000/svg" viewBox="0 0 512 512">
  <rect width="512" height="512" rx="120" fill="#ffffff"/>
  <path d="M146 144c0-8.837 7.163-16 16-16h40c8.837 0 16 7.163 16 16v180c0 8.837-7.163 16-16 16h-40c-8.837 0-16-7.163-16-16V144Z" fill="#030b14"/>
  <circle cx="256" cy="240" r="34" fill="#030b14"/>
  <path d="M294 144c0-8.837 7.163-16 16-16h40c8.837 0 16 7.163 16 16v126h44c8.837 0 16 7.163 16 16v38c0 8.837-7.163 16-16 16H310c-8.837 0-16-7.163-16-16V144Z" fill="#030b14"/>
</svg>
