<svg xmlns="http://www.w3.org/2000/svg" viewBox="0 0 512 512">
  <rect width="512" height="512" rx="160" fill="#0c1220"/>
  <path d="M146 136c0-8.837 7.163-16 16-16h42c8.837 0 16 7.163 16 16v240c0 8.837-7.163 16-16 16h-42c-8.837 0-16-7.163-16-16V136Z" fill="#ffffff"/>
  <circle cx="256" cy="256" r="38" fill="#ffffff"/>
  <path d="M294 136c0-8.837 7.163-16 16-16h42c8.837 0 16 7.163 16 16v176h48c8.837 0 16 7.163 16 16v48c0 8.837-7.163 16-16 16H310c-8.837 0-16-7.163-16-16V136Z" fill="#ffffff"/>
</svg>
